<svg id="SvgjsSvg1016" width="288" height="288" xmlns="http://www.w3.org/2000/svg" version="1.1" xmlns:xlink="http://www.w3.org/1999/xlink" xmlns:svgjs="http://svgjs.com/svgjs"><defs id="SvgjsDefs1017"></defs><g id="SvgjsG1018"><svg xmlns="http://www.w3.org/2000/svg" viewBox="0 0 24 24" width="288" height="288"><path fill="#ededed" d="M12 0A12 12 0 0 0 0 12a12.25 12.25 0 0 0 9.39 12 .5.5 0 0 0 .61-.5v-3a.5.5 0 0 0-.5-.5h-1c-1.25 0-2.1-1.18-2.85-2.23l-.23-.32a7.53 7.53 0 0 1 1 .64 3.59 3.59 0 0 0 2.05.9h.15A1.37 1.37 0 0 0 10 17.5v-.35a.5.5 0 0 0-.36-.48C6.86 15.88 5 13.81 5 11.5a4.74 4.74 0 0 1 1.43-3.31.5.5 0 0 0 .09-.56 2.8 2.8 0 0 1 .15-2.55A4.91 4.91 0 0 1 8.5 6.37a.5.5 0 0 0 .55.15 8.68 8.68 0 0 1 5.89 0 .5.5 0 0 0 .55-.15 4.91 4.91 0 0 1 1.83-1.29 2.8 2.8 0 0 1 .15 2.55.5.5 0 0 0 .09.56A4.74 4.74 0 0 1 19 11.5c0 2.42-2.07 4.59-5 5.27a.5.5 0 0 0-.33.72 4.3 4.3 0 0 1 .36 2v4a.5.5 0 0 0 .5.5h.11A12.25 12.25 0 0 0 24 12 12 12 0 0 0 12 0Z" data-name="Github 1" class="color303c42 svgShape"></path></svg></g></svg>